<?xml version="1.0" standalone="no"?>
<!DOCTYPE svg PUBLIC "-//W3C//DTD SVG 20010904//EN"
 "http://www.w3.org/TR/2001/REC-SVG-20010904/DTD/svg10.dtd">
<svg version="1.0" xmlns="http://www.w3.org/2000/svg"
 width="260.000000pt" height="260.000000pt" viewBox="0 0 260.000000 260.000000"
 preserveAspectRatio="xMidYMid meet">
<metadata>
Created by potrace 1.14, written by Peter Selinger 2001-2017
</metadata>
<g transform="translate(0.000000,260.000000) scale(0.100000,-0.100000)"
fill="#000000" stroke="none">
<path d="M145 2563 c-49 -11 -77 -28 -93 -57 -16 -29 -17 -120 -20 -1171 -2
-627 0 -1164 3 -1194 7 -55 16 -68 83 -119 l30 -22 1166 0 c750 0 1166 3 1166
10 0 5 13 16 29 25 16 8 43 35 60 60 l31 46 0 1160 c0 750 -3 1159 -10 1159
-5 0 -19 18 -30 40 -11 21 -30 45 -43 52 -17 10 -259 13 -1187 14 -641 1
-1174 0 -1185 -3z m1720 -173 c62 -24 92 -86 80 -166 -5 -38 -12 -48 -46 -69
-21 -14 -39 -30 -39 -35 0 -6 -17 -10 -38 -10 -75 0 -162 82 -162 152 0 42 58
124 92 131 43 8 87 7 113 -3z m53 -342 c9 -9 12 -73 12 -228 0 -257 1 -260 85
-260 81 0 85 -7 85 -160 0 -71 -4 -140 -10 -154 -8 -23 -15 -26 -60 -26 -51 0
-88 -12 -102 -34 -4 -6 -8 -73 -8 -148 0 -197 -22 -356 -62 -443 -38 -85 -85
-154 -147 -218 -55 -58 -103 -91 -196 -137 l-70 -35 -185 1 c-176 0 -189 1
-270 28 -97 32 -211 86 -254 121 l-29 23 19 25 c24 29 140 129 170 145 17 9
40 8 97 -3 183 -35 335 -25 422 27 52 31 134 117 142 148 4 14 14 43 24 65 16
34 19 68 19 227 l0 186 -31 11 c-37 13 -422 14 -487 2 -95 -18 -222 -142 -238
-231 -3 -19 -13 -58 -20 -86 -13 -45 -13 -61 1 -125 23 -114 21 -145 -14 -164
-16 -8 -31 -18 -33 -23 -4 -9 -147 -132 -154 -132 -11 0 -64 65 -64 80 0 8
-12 40 -27 70 -26 54 -27 60 -27 245 0 175 2 194 22 239 12 27 22 56 22 65 0
29 64 146 110 201 51 61 135 125 188 145 20 7 51 20 67 29 48 24 190 36 438
36 l228 0 15 35 c9 23 14 71 14 146 0 106 2 114 30 165 40 69 108 128 162 141
60 15 102 15 116 1z"/>
</g>
</svg>
