<svg width="16" height="17" viewBox="0 0 16 17" fill="none" xmlns="http://www.w3.org/2000/svg">
<g clip-path="url(#clip0_518_10724)">
<path d="M3.54594 10.1689L2.989 12.2481L0.953406 12.2911C0.345063 11.1628 0 9.8718 0 8.49993C0 7.17333 0.322625 5.92233 0.8945 4.8208H0.894937L2.70719 5.15305L3.50106 6.95443C3.33491 7.43883 3.24434 7.95883 3.24434 8.49993C3.24441 9.08718 3.35078 9.64983 3.54594 10.1689Z" fill="#FBBB00"/>
<path d="M15.8601 7.00537C15.952 7.48931 15.9999 7.98909 15.9999 8.49987C15.9999 9.07262 15.9397 9.63131 15.825 10.1702C15.4355 12.0041 14.4179 13.6054 13.0083 14.7386L13.0078 14.7381L10.7252 14.6217L10.4022 12.6049C11.3375 12.0564 12.0685 11.1979 12.4536 10.1702H8.17578V7.00537H12.516H15.8601Z" fill="#518EF8"/>
<path d="M13.0098 14.7382L13.0103 14.7386C11.6393 15.8406 9.89773 16.4999 8.00192 16.4999C4.95532 16.4999 2.30654 14.7971 0.955322 12.2911L3.54785 10.1689C4.22345 11.972 5.96279 13.2555 8.00192 13.2555C8.87839 13.2555 9.69951 13.0186 10.4041 12.605L13.0098 14.7382Z" fill="#28B446"/>
<path d="M13.1088 2.34175L10.5172 4.4635C9.78797 4.00769 8.92597 3.74437 8.00247 3.74437C5.91719 3.74437 4.14532 5.08678 3.50357 6.9545L0.89741 4.82087H0.896973C2.22841 2.25384 4.9106 0.5 8.00247 0.5C9.94357 0.5 11.7233 1.19144 13.1088 2.34175Z" fill="#F14336"/>
</g>
<defs>
<clipPath id="clip0_518_10724">
<rect width="16" height="16" fill="white" transform="translate(0 0.5)"/>
</clipPath>
</defs>
</svg>
